#N canvas 0 21 954 711 12;
#X obj 15 18 ctlin;
#X obj 15 47 pack 0 0 0, f 13;
#X msg 15 81 \$3 \$2 \$1;
#X obj 15 107 route 1;
#X obj 15 160 vsl 20 170 0 127 0 0 empty empty empty 0 -9 0 12 #fcfcfc #000000 #000000 0 1;
#X obj 15 132 route 21 22 23 24 25 26 27 28;
#X obj 38 160 vsl 20 170 0 127 0 0 empty empty empty 0 -9 0 12 #fcfcfc #000000 #000000 0 1;
#X obj 61 160 vsl 20 170 0 127 0 0 empty empty empty 0 -9 0 12 #fcfcfc #000000 #000000 0 1;
#X obj 84 160 vsl 20 170 0 127 0 0 empty empty empty 0 -9 0 12 #fcfcfc #000000 #000000 0 1;
#X obj 107 159 vsl 20 170 0 127 0 0 empty empty empty 0 -9 0 12 #fcfcfc #000000 #000000 0 1;
#X obj 130 159 vsl 20 170 0 127 0 0 empty empty empty 0 -9 0 12 #fcfcfc #000000 #000000 0 1;
#X obj 153 161 vsl 20 170 0 127 0 0 empty empty empty 0 -9 0 12 #fcfcfc #000000 #000000 0 1;
#X obj 176 161 vsl 20 170 0 127 0 0 empty empty empty 0 -9 0 12 #fcfcfc #000000 #000000 0 1;
#X floatatom 206 185 5 0 0 0 - - - 0;
#X obj 205 161 / 127;
#X obj 205 208 * 20000;
#X floatatom 204 236 5 0 0 0 - - - 0;
#X obj 630 37 pack 0 0 0, f 13;
#X obj 630 89 route 1;
#X obj 630 8 notein;
#X msg 630 62 \$3 \$1 \$2;
#X obj 631 114 unpack 0 0;
#X obj 412 634 dac~;
#X obj 434 494 *~ 0.1;
#X obj 208 328 print;
#X obj 280 36 route 1;
#X obj 280 63 vsl 20 170 0 127 0 0 empty empty empty 0 -9 0 12 #fcfcfc #000000 #000000 0 1;
#X obj 280 241 / 127;
#X obj 278 309 line~;
#X msg 278 275 \$1 10;
#X obj 631 170 pack 0 0 0;
#X obj 427 454 *~;
#X obj 476 415 line~;
#X msg 471 389 \$1 100;
#X obj 428 389 mtof;
#X obj 470 363 / 127;
#X obj 425 321 unpack 0 0;
#X obj 524 453 *~;
#X obj 573 414 line~;
#X msg 568 388 \$1 100;
#X obj 525 388 mtof;
#X obj 567 362 / 127;
#X obj 522 320 unpack 0 0;
#X obj 624 451 *~;
#X obj 673 412 line~;
#X msg 668 386 \$1 100;
#X obj 625 386 mtof;
#X obj 667 360 / 127;
#X obj 622 318 unpack 0 0;
#X obj 739 451 *~;
#X obj 788 412 line~;
#X msg 783 386 \$1 100;
#X obj 740 386 mtof;
#X obj 782 360 / 127;
#X obj 737 318 unpack 0 0;
#X obj 631 141 poly 8;
#X obj 861 457 *~;
#X obj 910 418 line~;
#X msg 905 392 \$1 100;
#X obj 862 392 mtof;
#X obj 904 366 / 127;
#X obj 859 324 unpack 0 0;
#X obj 976 457 *~;
#X obj 1025 418 line~;
#X msg 1020 392 \$1 100;
#X obj 977 392 mtof;
#X obj 1019 366 / 127;
#X obj 974 324 unpack 0 0;
#X obj 1079 448 *~;
#X obj 1128 409 line~;
#X msg 1123 383 \$1 100;
#X obj 1080 383 mtof;
#X obj 1122 357 / 127;
#X obj 1077 315 unpack 0 0;
#X obj 1179 447 *~;
#X obj 1228 408 line~;
#X msg 1223 382 \$1 100;
#X obj 1180 382 mtof;
#X obj 1222 356 / 127;
#X obj 1177 314 unpack 0 0;
#X obj 629 197 route 1 2 3 4 5 6 7 8;
#X obj 862 424 phasor~;
#X obj 412 420 phasor~;
#X obj 526 420 phasor~;
#X obj 625 419 phasor~;
#X obj 740 418 phasor~;
#X obj 977 424 phasor~;
#X obj 1081 416 phasor~;
#X obj 1181 414 phasor~;
#X obj 428 540 lop~;
#X obj 278 363 pow~ 2;
#X obj 286 417 *~ 10000;
#X obj 462 592 rev3~, f 25;
#X msg 547 556 98;
#X msg 626 556 50;
#X connect 0 0 1 0;
#X connect 0 1 1 1;
#X connect 0 2 1 2;
#X connect 1 0 2 0;
#X connect 2 0 3 0;
#X connect 3 0 5 0;
#X connect 3 0 24 0;
#X connect 3 0 25 0;
#X connect 5 0 4 0;
#X connect 5 1 6 0;
#X connect 5 2 7 0;
#X connect 5 3 8 0;
#X connect 5 4 9 0;
#X connect 5 5 10 0;
#X connect 5 6 11 0;
#X connect 5 7 12 0;
#X connect 5 7 14 0;
#X connect 13 0 15 0;
#X connect 14 0 13 0;
#X connect 15 0 16 0;
#X connect 17 0 20 0;
#X connect 18 0 21 0;
#X connect 19 0 17 0;
#X connect 19 1 17 1;
#X connect 19 2 17 2;
#X connect 20 0 18 0;
#X connect 21 0 55 0;
#X connect 21 1 55 1;
#X connect 23 0 89 0;
#X connect 25 0 26 0;
#X connect 26 0 27 0;
#X connect 27 0 29 0;
#X connect 28 0 90 0;
#X connect 29 0 28 0;
#X connect 30 0 80 0;
#X connect 31 0 23 0;
#X connect 32 0 31 1;
#X connect 33 0 32 0;
#X connect 34 0 82 0;
#X connect 35 0 33 0;
#X connect 36 0 34 0;
#X connect 36 1 35 0;
#X connect 37 0 23 0;
#X connect 38 0 37 1;
#X connect 39 0 38 0;
#X connect 40 0 83 0;
#X connect 41 0 39 0;
#X connect 42 0 40 0;
#X connect 42 1 41 0;
#X connect 43 0 23 0;
#X connect 44 0 43 1;
#X connect 45 0 44 0;
#X connect 46 0 84 0;
#X connect 47 0 45 0;
#X connect 48 0 46 0;
#X connect 48 1 47 0;
#X connect 49 0 23 0;
#X connect 50 0 49 1;
#X connect 51 0 50 0;
#X connect 52 0 85 0;
#X connect 53 0 51 0;
#X connect 54 0 52 0;
#X connect 54 1 53 0;
#X connect 55 0 30 0;
#X connect 55 1 30 1;
#X connect 55 2 30 2;
#X connect 56 0 23 0;
#X connect 57 0 56 1;
#X connect 58 0 57 0;
#X connect 59 0 81 0;
#X connect 60 0 58 0;
#X connect 61 0 59 0;
#X connect 61 1 60 0;
#X connect 62 0 23 0;
#X connect 63 0 62 1;
#X connect 64 0 63 0;
#X connect 65 0 86 0;
#X connect 66 0 64 0;
#X connect 67 0 65 0;
#X connect 67 1 66 0;
#X connect 68 0 23 0;
#X connect 69 0 68 1;
#X connect 70 0 69 0;
#X connect 71 0 87 0;
#X connect 72 0 70 0;
#X connect 73 0 71 0;
#X connect 73 1 72 0;
#X connect 74 0 23 0;
#X connect 75 0 74 1;
#X connect 76 0 75 0;
#X connect 77 0 88 0;
#X connect 78 0 76 0;
#X connect 79 0 77 0;
#X connect 79 1 78 0;
#X connect 80 0 36 0;
#X connect 80 1 42 0;
#X connect 80 2 48 0;
#X connect 80 3 54 0;
#X connect 80 4 61 0;
#X connect 80 5 67 0;
#X connect 80 6 73 0;
#X connect 80 7 79 0;
#X connect 81 0 56 0;
#X connect 82 0 31 0;
#X connect 83 0 37 0;
#X connect 84 0 43 0;
#X connect 85 0 49 0;
#X connect 86 0 62 0;
#X connect 87 0 68 0;
#X connect 88 0 74 0;
#X connect 89 0 22 0;
#X connect 89 0 22 1;
#X connect 89 0 92 0;
#X connect 89 0 92 1;
#X connect 90 0 91 0;
#X connect 91 0 89 1;
#X connect 92 0 22 0;
#X connect 92 1 22 1;
#X connect 93 0 92 2;
#X connect 93 0 92 3;
#X connect 94 0 92 5;
